<svg xmlns="http://www.w3.org/2000/svg" width="1481" height="171"> <path d="M 26,104 25,105 25,107 24,108 24,111 23,112 23,115 22,116 22,119 20,121 9,121 9,127 18,127 19,128 19,131 18,132 18,135 17,136 17,139 16,140 5,140 5,146 14,146 15,147 14,148 14,151 13,152 13,155 12,156 12,159 11,160 11,162 17,162 17,161 18,160 18,157 19,156 19,153 20,152 20,149 21,148 21,147 22,146 30,146 31,147 30,148 30,151 29,152 29,155 28,156 28,159 27,160 27,162 33,162 33,161 34,160 34,157 35,156 35,153 36,152 36,149 37,148 37,147 38,146 48,146 49,145 49,141 48,140 40,140 39,139 39,138 40,137 40,134 41,133 41,130 42,129 42,128 43,127 53,127 53,121 45,121 44,120 44,117 45,116 45,114 46,113 46,110 47,109 47,106 48,105 47,104 42,104 41,105 41,107 40,108 40,111 39,112 39,115 38,116 38,119 36,121 29,121 28,120 28,117 29,116 29,113 30,112 30,109 31,108 31,104 Z" fill="#FF7710"/> <path d="M 103,82 103,87 151,87 151,82 Z" fill="#FF7710"/> <path d="M 654,43 654,49 679,49 679,43 Z" fill="#FF7710"/> <path d="M 851,35 850,36 848,36 843,41 843,43 842,44 842,47 841,48 841,54 847,54 847,50 848,49 848,45 849,44 849,43 850,42 851,42 852,41 854,41 855,42 856,42 858,44 858,45 862,49 862,50 865,53 866,53 867,54 875,54 876,53 877,53 880,50 880,49 881,48 881,47 882,46 882,43 883,42 883,36 882,35 878,35 877,36 877,41 876,42 876,45 873,48 869,48 864,43 864,42 859,37 858,37 857,36 855,36 854,35 Z" fill="#FF7710"/> <path d="M 369,29 369,37 368,38 368,68 376,68 376,30 375,29 Z" fill="#FF7710"/> <path d="M 1399,24 1398,25 1396,25 1393,28 1392,27 1392,25 1384,25 1384,85 1392,85 1392,66 1393,65 1396,68 1398,68 1399,69 1408,69 1409,68 1411,68 1413,66 1414,66 1416,64 1416,63 1418,61 1418,60 1419,59 1419,57 1420,56 1420,51 1421,50 1421,43 1420,42 1420,37 1419,36 1419,34 1418,33 1418,32 1416,30 1416,29 1414,27 1413,27 1411,25 1409,25 1408,24 Z" fill="#FF7710"/> <path d="M 1204,24 1203,25 1201,25 1200,26 1199,26 1198,27 1197,27 1192,32 1192,33 1191,34 1191,35 1190,36 1190,37 1189,38 1189,42 1188,43 1188,50 1189,51 1189,55 1190,56 1190,57 1191,58 1191,59 1192,60 1192,61 1197,66 1198,66 1199,67 1200,67 1201,68 1203,68 1204,69 1216,69 1217,68 1219,68 1220,67 1222,67 1223,66 1223,59 1222,59 1220,61 1219,61 1218,62 1217,62 1216,63 1213,63 1212,64 1208,64 1207,63 1205,63 1204,62 1203,62 1198,57 1198,56 1197,55 1197,52 1196,51 1196,42 1197,41 1197,38 1198,37 1198,36 1203,31 1204,31 1205,30 1207,30 1208,29 1212,29 1213,30 1216,30 1217,31 1218,31 1219,32 1220,32 1222,34 1223,34 1223,27 1222,26 1220,26 1219,25 1217,25 1216,24 Z" fill="#FF7710"/> <path d="M 744,24 743,25 743,31 748,31 749,32 749,68 756,68 756,32 757,31 772,31 773,32 773,65 774,66 774,67 776,69 777,69 778,70 784,70 785,69 787,69 787,64 782,64 780,62 780,32 781,31 785,31 785,24 Z" fill="#FF7710"/> <path d="M 199,24 152,71 200,71 200,24 Z" fill="#FF7710"/> <path d="M 54,24 54,71 102,71 66,35 65,35 Z" fill="#FF7710"/> <path d="M 1261,23 1260,24 1257,24 1256,25 1255,25 1250,30 1248,28 1248,25 1247,24 1242,24 1242,68 1249,68 1249,41 1250,40 1250,38 1251,37 1251,36 1256,31 1257,31 1258,30 1267,30 1268,31 1270,31 1272,33 1273,33 1273,26 1272,25 1270,25 1269,24 1267,24 1266,23 Z" fill="#FF7710"/> <path d="M 1428,10 1428,15 1445,15 1446,16 1446,68 1454,68 1454,16 1455,15 1473,15 1473,10 Z" fill="#FF7710"/> <path d="M 1302,10 1300,12 1300,13 1292,21 1292,22 1289,25 1292,28 1292,29 1293,30 1294,30 1294,29 1302,21 1303,22 1303,61 1302,62 1291,62 1291,68 1322,68 1322,62 1311,62 1310,61 1310,10 Z" fill="#FF7710"/> <path d="M 1008,10 1006,12 1006,13 998,21 998,22 995,25 998,28 998,29 999,30 1000,30 1000,29 1008,21 1009,22 1009,61 1008,62 997,62 997,68 1028,68 1028,62 1017,62 1016,61 1016,10 Z" fill="#FF7710"/> <path d="M 939,10 939,68 946,68 946,20 947,19 948,20 948,22 949,23 949,25 950,26 950,28 951,29 951,31 952,32 952,34 953,35 953,37 954,38 954,40 955,41 955,43 956,44 956,46 957,47 963,47 964,46 964,44 965,43 965,41 966,40 966,38 967,37 967,35 968,34 968,32 969,31 969,29 970,28 970,26 971,25 971,23 972,22 972,20 973,19 974,20 974,68 981,68 981,10 970,10 970,11 969,12 969,14 968,15 968,17 967,18 967,20 966,21 966,23 965,24 965,26 964,27 964,29 963,30 963,32 962,33 962,34 961,35 961,37 960,38 959,37 959,36 958,35 958,33 957,32 957,30 956,29 956,27 955,26 955,24 954,23 954,21 953,20 953,18 952,17 952,15 951,14 951,12 950,11 950,10 Z" fill="#FF7710"/> <path d="M 922,10 921,11 921,12 920,13 920,14 919,15 919,16 918,17 918,19 917,20 917,21 916,22 916,23 915,24 915,25 914,26 914,27 913,28 913,29 912,30 912,31 911,32 911,34 910,35 910,36 909,37 909,38 908,39 908,40 907,41 907,42 906,43 906,44 905,45 905,46 904,47 904,49 903,50 903,51 902,52 902,53 901,54 901,55 900,56 900,57 899,58 899,59 898,60 898,61 897,62 897,64 896,65 896,66 895,67 895,68 894,69 894,70 893,71 893,72 892,73 892,74 891,75 891,76 899,76 899,75 900,74 900,73 901,72 901,71 902,70 902,69 903,68 903,67 904,66 904,65 905,64 905,63 906,62 906,60 907,59 907,58 908,57 908,56 909,55 909,54 910,53 910,52 911,51 911,50 912,49 912,48 913,47 913,45 914,44 914,43 915,42 915,41 916,40 916,39 917,38 917,37 918,36 918,35 919,34 919,33 920,32 920,30 921,29 921,28 922,27 922,26 923,25 923,24 924,23 924,22 925,21 925,20 926,19 926,18 927,17 927,15 928,14 928,13 929,12 929,11 930,10 Z" fill="#FF7710"/> <path d="M 693,10 693,15 710,15 711,16 711,68 719,68 719,16 720,15 738,15 738,10 Z" fill="#FF7710"/> <path d="M 601,10 601,68 638,68 638,63 610,63 609,62 609,10 Z" fill="#FF7710"/> <path d="M 522,10 522,11 520,13 520,14 518,16 518,17 516,19 516,20 515,21 515,22 513,24 513,25 511,27 511,28 509,30 509,31 508,32 508,33 506,35 506,36 504,38 504,39 502,41 502,42 501,43 501,44 499,46 499,54 523,54 524,55 524,68 532,68 532,55 533,54 540,54 540,48 533,48 532,47 532,10 Z" fill="#FF7710"/> <path d="M 451,10 451,68 459,68 459,40 460,39 480,39 481,40 481,68 489,68 489,10 481,10 481,33 480,34 460,34 459,33 459,10 Z" fill="#FF7710"/> <path d="M 368,10 368,19 376,19 376,10 Z" fill="#FF7710"/> <path d="M 302,10 302,68 310,68 310,23 311,22 312,23 312,25 313,26 313,28 314,29 314,31 315,32 315,33 316,34 316,36 317,37 317,39 318,40 318,42 319,43 319,45 320,46 320,47 326,47 327,46 327,44 328,43 328,41 329,40 329,38 330,37 330,35 331,34 331,32 332,31 332,29 333,28 333,26 334,25 334,24 335,23 335,21 336,20 337,21 337,68 344,68 344,10 333,10 333,12 332,13 332,15 331,16 331,17 330,18 330,20 329,21 329,23 328,24 328,26 327,27 327,29 326,30 326,32 325,33 325,35 324,36 324,37 323,38 322,37 322,35 321,34 321,32 320,31 320,30 319,29 319,27 318,26 318,24 317,23 317,21 316,20 316,18 315,17 315,15 314,14 314,12 313,11 313,10 Z" fill="#FF7710"/> <path d="M 1351,9 1350,10 1348,10 1347,11 1346,11 1345,12 1344,12 1338,18 1338,19 1337,20 1337,21 1336,22 1336,23 1335,24 1335,26 1334,27 1334,32 1333,33 1333,46 1334,47 1334,51 1335,52 1335,54 1336,55 1336,56 1337,57 1337,58 1338,59 1338,60 1345,67 1347,67 1348,68 1350,68 1351,69 1363,69 1364,68 1366,68 1367,67 1368,67 1370,65 1370,58 1369,58 1366,61 1365,61 1364,62 1363,62 1362,63 1359,63 1358,64 1355,64 1354,63 1351,63 1349,61 1348,61 1347,60 1347,59 1345,57 1345,56 1344,55 1344,54 1343,53 1343,51 1342,50 1342,42 1341,41 1341,37 1342,36 1342,28 1343,27 1343,25 1344,24 1344,23 1345,22 1345,21 1347,19 1347,18 1348,17 1349,17 1351,15 1354,15 1355,14 1358,14 1359,15 1362,15 1363,16 1364,16 1365,17 1366,17 1369,20 1370,20 1370,13 1368,11 1367,11 1366,10 1364,10 1363,9 Z" fill="#FF7710"/> <path d="M 1150,9 1149,10 1147,10 1146,11 1145,11 1139,17 1139,18 1138,19 1138,21 1137,22 1137,29 1138,30 1138,32 1139,33 1139,34 1143,38 1144,38 1145,39 1146,39 1147,40 1149,40 1150,41 1153,41 1154,42 1157,42 1158,43 1160,43 1161,44 1162,44 1163,45 1164,45 1165,46 1165,47 1166,48 1166,49 1167,50 1167,56 1166,57 1166,58 1162,62 1161,62 1160,63 1157,63 1156,64 1152,64 1151,63 1148,63 1147,62 1145,62 1144,61 1143,61 1142,60 1141,60 1139,58 1138,58 1138,66 1140,66 1141,67 1143,67 1144,68 1146,68 1147,69 1162,69 1163,68 1165,68 1166,67 1167,67 1168,66 1169,66 1173,62 1173,61 1174,60 1174,58 1175,57 1175,48 1174,47 1174,45 1173,44 1173,43 1168,38 1167,38 1166,37 1164,37 1163,36 1161,36 1160,35 1157,35 1156,34 1153,34 1152,33 1151,33 1150,32 1149,32 1146,29 1146,28 1145,27 1145,22 1146,21 1146,20 1151,15 1154,15 1155,14 1159,14 1160,15 1164,15 1165,16 1166,16 1167,17 1168,17 1169,18 1170,18 1171,19 1172,19 1172,12 1171,11 1168,11 1167,10 1165,10 1164,9 Z" fill="#FF7710"/> <path d="M 1098,9 1097,10 1094,10 1093,11 1091,11 1090,12 1090,18 1091,18 1092,17 1094,17 1095,16 1096,16 1097,15 1102,15 1103,14 1107,14 1108,15 1110,15 1111,16 1112,16 1115,19 1115,21 1116,22 1116,26 1115,27 1115,29 1112,32 1111,32 1110,33 1107,33 1106,34 1098,34 1098,39 1106,39 1107,40 1110,40 1111,41 1112,41 1116,45 1116,46 1117,47 1117,56 1116,57 1116,58 1112,62 1111,62 1110,63 1107,63 1106,64 1102,64 1101,63 1097,63 1096,62 1094,62 1093,61 1092,61 1091,60 1090,60 1089,59 1088,59 1088,66 1089,67 1091,67 1092,68 1095,68 1096,69 1111,69 1112,68 1115,68 1116,67 1117,67 1119,65 1120,65 1122,63 1122,62 1124,60 1124,58 1125,57 1125,47 1124,46 1124,45 1123,44 1123,43 1119,39 1118,39 1117,38 1116,38 1115,37 1115,36 1116,35 1117,35 1118,34 1119,34 1123,30 1123,28 1124,27 1124,21 1123,20 1123,18 1122,17 1122,16 1118,12 1117,12 1116,11 1115,11 1114,10 1112,10 1111,9 Z" fill="#FF7710"/> <path d="M 560,9 559,10 556,10 555,11 552,11 551,12 551,18 552,18 553,17 555,17 556,16 558,16 559,15 563,15 564,14 568,14 569,15 572,15 576,19 576,20 577,21 577,27 576,28 576,29 573,32 572,32 571,33 568,33 567,34 559,34 559,39 567,39 568,40 571,40 572,41 573,41 577,45 577,46 578,47 578,56 577,57 577,58 573,62 572,62 571,63 568,63 567,64 563,64 562,63 558,63 557,62 555,62 554,61 553,61 552,60 551,60 550,59 549,59 549,66 550,67 552,67 553,68 557,68 558,69 573,69 574,68 576,68 577,67 578,67 579,66 580,66 584,62 584,61 585,60 585,59 586,58 586,46 585,45 585,44 582,41 582,40 581,40 579,38 578,38 577,37 577,36 578,35 579,35 584,30 584,29 585,28 585,20 584,19 584,18 583,17 583,16 578,11 577,11 576,10 574,10 573,9 Z" fill="#FF7710"/> <path d="M 420,9 419,10 417,10 416,11 415,11 414,12 413,12 408,17 408,18 406,20 406,21 405,22 405,24 404,25 404,27 403,28 403,33 402,34 402,44 403,45 403,50 404,51 404,54 405,55 405,56 406,57 406,58 407,59 407,60 413,66 414,66 415,67 416,67 417,68 419,68 420,69 432,69 433,68 435,68 436,67 437,67 438,66 439,66 439,58 437,60 436,60 434,62 433,62 432,63 429,63 428,64 425,64 424,63 421,63 420,62 419,62 414,57 414,56 413,55 413,54 412,53 412,50 411,49 411,29 412,28 412,25 413,24 413,23 414,22 414,21 419,16 420,16 421,15 424,15 425,14 428,14 429,15 432,15 433,16 434,16 436,18 437,18 439,20 439,12 438,12 437,11 436,11 435,10 433,10 432,9 Z" fill="#FF7710"/> <path d="M 1043,7 1043,68 1050,68 1050,51 1055,46 1056,46 1057,47 1057,48 1060,51 1060,52 1062,54 1062,55 1065,58 1065,59 1068,62 1068,63 1070,65 1070,66 1072,68 1081,68 1079,66 1079,65 1076,62 1076,61 1073,58 1073,57 1070,54 1070,53 1067,50 1067,49 1065,47 1065,46 1062,43 1062,42 1061,41 1070,32 1071,32 1078,25 1069,25 1061,33 1060,33 1051,42 1050,41 1050,7 Z" fill="#FF7710"/> <path d="M 220,7 220,8 221,9 221,10 222,11 222,12 223,13 223,14 224,15 224,17 225,18 225,19 226,20 226,22 227,23 227,25 228,26 228,29 229,30 229,35 230,36 230,50 229,51 229,56 228,57 228,60 227,61 227,63 226,64 226,66 225,67 225,69 224,70 224,71 223,72 223,73 222,74 222,75 221,76 221,77 220,78 220,79 226,79 227,78 227,77 228,76 228,75 229,74 229,73 231,71 231,69 232,68 232,67 233,66 233,65 234,64 234,62 235,61 235,59 236,58 236,55 237,54 237,47 238,46 238,40 237,39 237,33 236,32 236,28 235,27 235,25 234,24 234,22 233,21 233,20 232,19 232,18 231,17 231,16 230,15 230,14 229,13 229,12 228,11 228,10 226,8 226,7 Z" fill="#FF7710"/> <path d="M 28,7 28,8 26,10 26,11 25,12 25,13 24,14 24,15 23,16 23,17 22,18 22,19 21,20 21,21 20,22 20,24 19,25 19,27 18,28 18,31 17,32 17,38 16,39 16,47 17,48 17,54 18,55 18,58 19,59 19,61 20,62 20,64 21,65 21,66 22,67 22,69 23,70 23,71 25,73 25,74 26,75 26,76 27,77 27,78 28,79 34,79 34,78 33,77 33,76 32,75 32,74 31,73 31,72 30,71 30,70 29,69 29,67 28,66 28,64 27,63 27,61 26,60 26,57 25,56 25,51 24,50 24,36 25,35 25,30 26,29 26,26 27,25 27,23 28,22 28,20 29,19 29,17 30,16 30,15 31,14 31,13 32,12 32,11 33,10 33,9 34,8 34,7 Z" fill="#FF7710"/> <path d="M 0,0 0,170 Z" fill="#FF7710"/> </svg>