<?xml version="1.0" encoding="UTF-8" standalone="no"?>
<!-- Created with Inkscape (http://www.inkscape.org/) -->

<svg
   version="1.1"
   id="svg179"
   width="1776"
   height="211"
   viewBox="0 0 1776 211"
   sodipodi:docname="2026-01-24_103753-photoaidcom-invert.jpg"
   inkscape:version="1.2.1 (9c6d41e410, 2022-07-14)"
   xmlns:inkscape="http://www.inkscape.org/namespaces/inkscape"
   xmlns:sodipodi="http://sodipodi.sourceforge.net/DTD/sodipodi-0.dtd"
   xmlns:xlink="http://www.w3.org/1999/xlink"
   xmlns="http://www.w3.org/2000/svg"
   xmlns:svg="http://www.w3.org/2000/svg">
  <defs
     id="defs183" />
  <sodipodi:namedview
     id="namedview181"
     pagecolor="#ffffff"
     bordercolor="#000000"
     borderopacity="0.25"
     inkscape:showpageshadow="2"
     inkscape:pageopacity="0.0"
     inkscape:pagecheckerboard="0"
     inkscape:deskcolor="#d1d1d1"
     showgrid="false"
     showguides="false"
     inkscape:zoom="0.9847973"
     inkscape:cx="889.01544"
     inkscape:cy="105.60549"
     inkscape:window-width="1920"
     inkscape:window-height="1046"
     inkscape:window-x="-11"
     inkscape:window-y="-11"
     inkscape:window-maximized="1"
     inkscape:current-layer="g185" />
  <g
     inkscape:groupmode="layer"
     inkscape:label="Image"
     id="g185">
    <image
       width="1776"
       height="211"
       preserveAspectRatio="none"
       style="image-rendering:optimizeQuality"
       xlink:href="2026-01-24_103753-photoaidcom-invert.jpg"
       id="image187" />
    <path
       style="fill:#FF7710"
       d="M 10.571968,192.80103 C 11.885337,187.68547 12.968932,183.1625 12.979956,182.75 12.99098,182.3375 10.3,182 7,182 H 1 v -4.5 -4.5 h 7.3784266 7.3784264 l 1.621574,-6.45552 C 18.270292,162.99395 19,159.64042 19,159.0922 c 0,-0.54822 -2.8125,-1.13074 -6.25,-1.29448 L 6.5,157.5 6.1925022,153.25 5.8850043,149 h 7.8551727 7.855172 l 2.48214,-10.25 2.48214,-10.25 4.220186,-0.3075 C 35.815382,127.82559 35.865206,128.06813 33,139 c -2.714913,10.35844 -2.836356,10 3.38809,10 h 5.388091 l 2.251387,-9.25 c 1.238263,-5.0875 2.693722,-9.8125 3.234354,-10.5 0.97319,-1.23757 6.895361,-1.75938 7.953906,-0.70084 0.302038,0.30204 -0.513942,4.68954 -1.81329,9.75 -1.299347,5.06046 -2.37147,9.53834 -2.382494,9.95084 C 51.00902,148.6625 53.475,149 56.5,149 H 62 v 4.5 4.5 h -6.84087 -6.84087 l -1.181082,5.25 c -0.649595,2.8875 -1.442454,6.23866 -1.761909,7.44703 -0.543557,2.05605 -0.205271,2.21647 5.271952,2.5 L 56.5,173.5 l 0.307498,4.25 0.307498,4.25 H 49.737838 42.36068 L 40,192 37.63932,202 h -4.31966 c -5.025208,0 -4.985496,0.1712 -2.31966,-10 2.714811,-10.35805 2.836026,-10 -3.38541,-10 h -5.38541 l -2.411908,9.75 -2.411907,9.75 -4.610671,0.30103 -4.6106703,0.30104 z M 36.900401,169.25 c 0.537619,-2.0625 1.280044,-5.4375 1.649835,-7.5 L 39.222582,158 H 33.770421 28.31826 l -1.181082,5.25 c -0.649595,2.8875 -1.448688,6.2625 -1.775761,7.5 -0.564416,2.1355 -0.31081,2.25 4.983408,2.25 h 5.578087 z M 123,103.5 V 100 h 30.5 30.5 v 3.5 3.5 H 153.5 123 Z m 1534,-38 V 27 h 5.5 c 4.9803,0 5.5,0.205449 5.5,2.174314 v 2.174314 l 2.25,-2.049351 c 1.2375,-1.127143 3.2329,-2.555584 4.4343,-3.174314 3.0061,-1.54826 11.692,-1.412405 15.6585,0.244914 4.9067,2.050124 10.1649,8.814722 12.0363,15.484479 3.4959,12.459398 1.2493,27.715004 -5.1893,35.237015 C 1692.8816,82.124556 1688.749,84 1681.9664,84 c -5.405,0 -8.0697,-0.977823 -11.7164,-4.299277 L 1668,77.651372 V 90.825686 104 h -5.5 -5.5 z m 31.1066,6.872023 c 3.4932,-3.312096 4.8934,-8.487909 4.8934,-18.088819 0,-9.136443 -1.2265,-13.654702 -4.7342,-17.440317 -5.0074,-5.40415 -13.7987,-4.207966 -17.8097,2.423271 -1.6531,2.732953 -1.9561,5.092518 -1.9561,15.233842 0,10.125889 0.3043,12.503091 1.9487,15.221311 3.9551,6.538171 12.2453,7.782654 17.6579,2.650712 z M 25.136506,87.170691 C 18.097773,73.467724 15.647466,64.127549 15.647466,51 c 0,-13.127549 2.450307,-22.467724 9.48904,-36.170691 L 30.185477,5 h 4.490595 c 2.469827,0 4.340595,0.3375 4.157261,0.75 C 38.65,6.1625 37.08148,9.425 35.347734,13 22.918015,38.630184 23.00828,63.494019 35.625238,89.439982 37.481357,93.256971 39,96.519471 39,96.689982 39,96.860492 37.016732,97 34.592738,97 H 30.185477 Z M 269,96.403999 c 0,-0.327801 1.52478,-3.815301 3.38839,-7.75 7.31325,-15.440642 10.08494,-30.531732 8.49272,-46.240385 C 279.95177,33.244876 275.44353,18.303573 271.4401,11.124047 270.09805,8.7172729 269,6.3288988 269,5.8165492 c 0,-0.5123497 1.88403,-0.7931708 4.18674,-0.624047 3.84736,0.2825717 4.42616,0.7128032 7.14021,5.3074978 15.58226,26.379657 15.31297,56.932707 -0.72573,82.339657 C 277.23661,96.585447 276.57759,97 272.98746,97 270.79435,97 269,96.731799 269,96.403999 Z M 1104.2724,91.75 c 0.2674,-0.6875 8.967,-19.5875 19.3323,-42 L 1142.4507,9 h 5.2494 5.2494 l -3.5199,7.75 c -1.9359,4.2625 -10.5466,23.1625 -19.1349,42 L 1114.6798,93 h -5.4469 c -3.9502,0 -5.3132,-0.343469 -4.9605,-1.25 z M 62,56.256148 V 25.512296 L 92.5,56 C 109.275,72.768237 123,86.602971 123,86.743852 123,86.884733 109.275,87 92.5,87 H 62 Z M 214,56.5 C 230.76824,39.725 244.60297,26 244.74385,26 244.88473,26 245,39.725 245,56.5 V 87 H 214.25615 183.5123 Z M 961.6563,83.867465 C 957.77514,81.611395 957,77.060863 957,56.532119 V 37 h -10 -10 v 23 23 h -5 -5 V 60 37 h -3.5 -3.5 v -5 -5 h 27 27 v 5 5 h -3.5 -3.5 v 18.065741 c 0,10.540828 0.43118,18.871418 1.03518,20 0.66611,1.244638 2.09223,1.934259 4,1.934259 2.70389,0 2.96482,0.298613 2.96482,3.393011 0,2.171492 -0.56946,3.611534 -1.58179,4 -2.52246,0.967961 -9.748,0.64511 -11.76191,-0.525546 z M 513.5,81.612691 C 507.09757,78.580791 502.82382,74.031025 499.30414,66.5 496.62325,60.763713 496.5,59.840718 496.5,45.5 c 0,-14.340718 0.12325,-15.263713 2.80414,-21 C 504.95437,12.410256 513.25581,6.9883421 526,7.0641525 c 4.57864,0.027237 9.25281,0.7143171 12,1.7639412 4.48366,1.7130833 4.50111,1.7386733 4.80579,7.0475483 0.16819,2.930521 -0.0568,5.146883 -0.5,4.925248 -11.98713,-5.994701 -19.28629,-6.830162 -25.59713,-2.929848 -13.02735,8.051342 -13.02735,47.206574 0,55.257916 6.31084,3.900314 13.61,3.064853 25.59713,-2.929848 0.44319,-0.221635 0.66819,1.994727 0.5,4.925248 -0.30468,5.308875 -0.32213,5.334465 -4.80579,7.047548 -6.92823,2.647089 -18.27625,2.388069 -24.5,-0.559215 z m 171,0.61022 -6,-1.724555 -0.30226,-5.249178 C 678.0315,72.36213 678.08679,70 678.32062,70 c 0.23383,0 2.47011,0.904587 4.96952,2.010193 11.27152,4.985928 22.87824,4.554817 28.24722,-1.049193 2.29759,-2.398164 2.91566,-4.075856 3.26114,-8.852037 0.4023,-5.5618 0.23725,-6.098859 -2.93612,-9.553874 -3.64884,-3.972683 -8.07122,-5.490846 -16.11238,-5.531232 L 691,47 v -4 -4 l 4.75,-0.0056 c 6.49726,-0.0076 12.04322,-1.696734 14.87773,-4.531239 C 712.47997,32.610942 713,31.014445 713,27.180313 c 0,-9.462619 -6.34236,-13.212163 -19.02096,-11.245011 -3.76182,0.583666 -8.02532,1.511995 -9.47445,2.062954 -3.71756,1.413413 -3.64581,1.494624 -3.30938,-3.745916 L 681.5,9.5046798 l 5,-1.1563432 C 693.0937,6.8234196 705.83516,6.70992 710.10078,8.1381032 720.61468,11.65829 726.53651,21.580114 723.921,31.293389 722.76893,35.571861 717.06991,42 714.4288,42 713.64296,42 713,42.45 713,43 c 0,0.55 0.65934,1 1.4652,1 2.27285,0 8.68066,6.104847 10.18376,9.702258 0.74307,1.778428 1.35104,5.740885 1.35104,8.805461 0,8.660941 -3.91061,14.876985 -12,19.074418 -5.0298,2.60987 -21.41124,2.965693 -29.5,0.640774 z m 671,0 -6,-1.724555 -0.3023,-5.249178 C 1349.0315,72.36213 1349.0868,70 1349.3206,70 c 0.2338,0 2.4701,0.904587 4.9695,2.010193 11.2716,4.985928 22.8783,4.554817 28.2473,-1.049193 2.2976,-2.398164 2.9156,-4.075856 3.2611,-8.852037 0.4023,-5.5618 0.2373,-6.098859 -2.9361,-9.553874 -3.6489,-3.972683 -8.0712,-5.490846 -16.1124,-5.531232 L 1362,47 v -4 -4 l 4.75,-0.0056 c 6.4973,-0.0076 12.0432,-1.696734 14.8777,-4.531239 1.8523,-1.852242 2.3723,-3.448739 2.3723,-7.282871 0,-9.462619 -6.3424,-13.212163 -19.021,-11.245011 -3.7618,0.583666 -8.0253,1.511995 -9.4744,2.062954 -3.7176,1.413413 -3.6458,1.494624 -3.3094,-3.745916 l 0.3048,-4.7476602 5,-1.1563432 c 6.5937,-1.524917 19.3352,-1.6384166 23.6008,-0.2102334 10.5139,3.5201868 16.4357,13.4420108 13.8202,23.1552858 C 1393.7689,35.571861 1388.0699,42 1385.4288,42 1384.643,42 1384,42.45 1384,43 c 0,0.55 0.6593,1 1.4652,1 2.2728,0 8.6807,6.104847 10.1838,9.702258 0.743,1.778428 1.351,5.740885 1.351,8.805461 0,8.660941 -3.9106,14.876985 -12,19.074418 -5.0298,2.60987 -21.4112,2.965693 -29.5,0.640774 z m 62,-0.01083 -6,-1.714449 -0.2999,-5.748817 C 1411.0351,71.586968 1411.0971,69 1411.3378,69 c 0.2407,0 3.4788,1.423145 7.1959,3.162544 11.2423,5.260948 23.3359,4.363826 28.139,-2.087405 3.2979,-4.429545 2.0632,-13.707704 -2.1955,-16.498143 -1.3775,-0.902533 -6.8858,-2.773755 -12.2408,-4.15827 -16.1992,-4.188224 -21.226,-8.970761 -21.2327,-20.200845 0,-3.455165 0.6025,-7.730165 1.3434,-9.5 1.8308,-4.373084 8.6766,-10.3529865 13.3321,-11.6457572 5.6441,-1.5672653 17.0509,-1.1906922 23.3208,0.7698903 l 5.5,1.7198279 0.3023,5.219079 C 1454.9685,18.651414 1454.9104,21 1454.6731,21 c -0.2373,0 -3.0658,-1.206084 -6.2857,-2.680186 C 1434.8534,12.12374 1421,16.71844 1421,27.403287 c 0,6.568478 3.3194,9.175592 15.5,12.174006 17.3925,4.28138 23.2194,10.783153 22.3202,24.905051 -0.5181,8.137064 -3.807,13.349143 -10.5042,16.646507 -6.365,3.133802 -21.7474,3.674516 -30.816,1.083232 z m 72,-0.595374 C 1479.1352,76.716744 1474.6091,68.474621 1474.6091,54.5 c 0,-13.974621 4.5261,-22.216744 14.8909,-27.116709 6.0705,-2.869852 16.6837,-3.221498 23.8219,-0.789289 L 1518,28.188004 v 5.448152 5.448152 l -4.6578,-2.729654 c -6.0459,-3.543123 -15.8059,-3.883081 -20.1026,-0.700206 -6.8023,5.039015 -9.6159,14.684182 -7.3934,25.345552 1.2334,5.91703 3.2188,9.212763 7.4552,12.375711 4.138,3.089494 13.9234,2.78746 20.0161,-0.617815 L 1518,70.140793 v 5.335601 5.335602 l -4.6781,1.594002 c -7.1382,2.432209 -17.7514,2.080563 -23.8219,-0.789289 z M 371,45.95619 V 8.9123809 L 378.25,9.2061904 385.5,9.5 l 5.97145,17.22855 c 3.2843,9.475703 6.25112,16.900703 6.59294,16.5 0.34183,-0.400702 3.21895,-8.26605 6.3936,-17.47855 L 410.23009,9 H 417.61505 425 v 37 37 h -5.5 -5.5 l -0.0593,-30.25 -0.0593,-30.25 -5.80952,16.5 -5.80953,16.5 -4.40166,0.295419 -4.40165,0.295418 L 387.47949,38.795419 381.5,21.5 381.23555,52.25 380.9711,83 H 375.98555 371 Z m 82,22.699373 c 0,-7.889441 0.29338,-19.139441 0.65197,-25 L 454.30393,33 h 4.23141 c 3.54279,0 4.32952,0.366159 4.83437,2.25 0.33164,1.2375 0.60913,12.4875 0.61664,25 L 464,83 H 458.5 453 Z M 556,46 V 9 h 5.5 5.5 V 24 39 H 580.5 594 V 24 9 h 5.5 5.5 V 46 83 H 599.5 594 V 65 47 H 580.5 567 v 18 18 h -5.5 -5.5 z m 91,28.5 V 66 H 631.5 616 v -5.397387 c 0,-5.235904 0.44317,-6.096069 14.81257,-28.75 L 645.62515,8.5 651.81257,8.2022826 658,7.9045652 V 32.452283 57 h 5.0575 5.0575 l -0.3075,4.25 -0.3075,4.25 -4.75,0.304791 -4.75,0.304791 V 74.554791 83 h -5.5 -5.5 z m 0,-35.7 c 0,-10.144198 -0.37829,-17.779505 -0.85465,-17.25 -0.65782,0.731212 -18.89391,31.069795 -20.85767,34.7 -0.22314,0.4125 4.57084,0.75 10.6533,0.75 H 647 Z M 743,46 V 9 h 5.5 5.5 v 33 33 h 18 18 v 4 4 H 766.5 743 Z m 137,4 V 17 H 868.5 857 V 13 9 h 29 29 v 4 4 h -12 -12 v 33 33 h -5.5 -5.5 z m 284,-4.04381 V 8.9123809 l 7.25,0.2938095 7.25,0.2938096 5.9714,17.22855 c 3.2843,9.475703 6.2512,16.900703 6.593,16.5 0.3418,-0.400702 3.2189,-8.26605 6.3936,-17.47855 L 1203.2301,9 h 7.3849 7.385 v 37 37 h -5.5 -5.5 l -0.059,-30.25 -0.059,-30.25 -5.8095,16.5 -5.8095,16.5 -4.4017,0.295419 -4.4016,0.295418 -5.9795,-17.295418 L 1174.5,21.5 1174.2355,52.25 1173.9711,83 H 1168.9855 1164 Z m 82,22.699373 c 0,-7.889441 0.2934,-19.139441 0.652,-25 L 1247.3039,33 h 4.2314 c 3.5428,0 4.3296,0.366159 4.8344,2.25 0.3317,1.2375 0.6091,12.4875 0.6166,25 L 1257,83 h -5.5 -5.5 z M 1293,44 V 5 h 4.9809 4.9808 l 0.2692,21.949595 0.2691,21.949595 11.5,-10.901848 11.5,-10.901848 6,-0.0142 6,-0.0142 -10.7891,10.507109 -10.7892,10.50711 2.2564,3.209348 c 1.241,1.765141 6.5681,9.059348 11.8379,16.209348 5.2697,7.15 9.9235,13.5625 10.3417,14.25 0.5751,0.945448 -0.6977,1.25 -5.2238,1.25 h -5.9842 L 1319.9474,68.92742 1309.745,54.854831 1306.3725,58.123587 1303,61.392343 v 10.803833 10.803833 h -5 -5 v -39 z m 248,11 V 27 h 4.5 c 4.4333,0 4.5,0.04938 4.5,3.333333 0,4.752867 0.7917,4.973552 4.1442,1.155244 1.6257,-1.851556 4.5328,-3.886946 6.4604,-4.523089 4.7976,-1.583375 12.4446,-1.389613 16.7885,0.425397 3.4703,1.449973 3.6069,1.69917 3.6069,6.578412 v 5.071351 l -4.1676,-2.126148 c -5.8417,-2.980213 -15.5854,-2.413181 -19.432,1.130836 -5.4911,5.05918 -6.3544,8.808804 -6.3784,27.704664 L 1551,83 h -5 -5 z m 61,24 v -4 h 8 8 V 48.490873 21.981745 l -6.2856,6.634571 -6.2857,6.634571 -2.778,-3.642227 -2.7781,-3.642227 8.7906,-9.983217 L 1617.4539,8 h 4.773 H 1627 V 41.5 75 h 8 8 v 4 4 H 1622.5 1602 Z M 1734,50 V 17 H 1722.5 1711 V 13 9 h 29 29 v 4 4 h -12 -12 v 33 33 h -5.5 -5.5 z m -659.5,14.654801 c -1.65,-0.754268 -5.1484,-4.149762 -7.7742,-7.545542 -4.9483,-6.399393 -8.4411,-8.816226 -11.2072,-7.754777 C 1053.2999,50.205871 1051,56.116984 1051,60.967881 V 65 h -4.6425 -4.6424 l 0.6284,-6.012305 C 1043.5284,47.651103 1048.8311,41 1056.6845,41 c 6.1792,0 9.3021,1.94279 15.2126,9.463742 4.2589,5.41938 5.6424,6.536258 8.0967,6.536258 3.8921,0 5.9673,-3.223323 6.7104,-10.422544 L 1087.2798,41 h 4.4753 4.4753 l -0.6782,5.75 c -0.8109,6.873967 -4.0778,13.939633 -7.6388,16.521264 -3.3893,2.457209 -9.6517,3.103143 -13.4134,1.383537 z M 810,55 v -4 h 15.5 15.5 v 4 4 H 825.5 810 Z M 453,15.5 V 9 h 5.5 5.5 v 6.5 6.5 h -5.5 -5.5 z m 793,0 V 9 h 5.5 5.5 v 6.5 6.5 h -5.5 -5.5 z"
       id="path189" />
  </g>
</svg>
